<?xml version="1.0" encoding="iso-8859-1"?>
<!-- Generator: Adobe Illustrator 19.0.0, SVG Export Plug-In . SVG Version: 6.00 Build 0)  -->
<svg version="1.1" id="Layer_1" xmlns="http://www.w3.org/2000/svg" xmlns:xlink="http://www.w3.org/1999/xlink" x="0px" y="0px"
	 viewBox="0 0 512 512" style="enable-background:new 0 0 512 512;" xml:space="preserve">
<path style="fill:#FA9C1C;" d="M219.287,167.932c0,0,16.013,174.616,16.013,200.155c0,34.261-16.013,136.105-16.013,136.105h104.08
	c0,0-16.885-103.959-16.012-136.105c0.844-31.101,16.012-200.155,16.012-200.155L219.287,167.932L219.287,167.932z"/>
<path style="fill:#FBB049;" d="M219.287,167.932c0,0,16.013,174.616,16.013,200.155c0,34.261-16.013,136.105-16.013,136.105h56.043
	V167.932H219.287z"/>
<g>
	<path style="fill:#FFFFFF;" d="M227.293,167.932h88.068l8.006-88.068l-56.804-0.456c0,0-1.158,32.954-45.291,32.481
		L227.293,167.932z"/>
	<path style="fill:#FFFFFF;" d="M323.367,79.864V55.846c0-26.53-21.507-48.037-48.037-48.037c-18.028,0-33.715,9.944-41.932,24.633
		c-2.004-0.309-4.014-0.615-6.105-0.615c-22.109,0-40.031,17.922-40.031,40.031s17.922,40.031,40.031,40.031
		c19.522,0,35.734-13.99,39.27-32.482L323.367,79.864z"/>
</g>
<g>
	<rect x="251.311" y="456.354" style="fill:#1D1D1B;" width="40.031" height="15.617"/>
	<rect x="243.305" y="160.117" style="fill:#1D1D1B;" width="56.044" height="15.617"/>
	<path style="fill:#1D1D1B;" d="M211.573,502.978L210.155,512h122.392l-1.471-9.06c-0.168-1.033-16.757-103.597-15.915-134.642
		c0.831-30.623,15.864-277.993,16.016-280.562v-31.89C331.175,25.052,306.123,0,275.33,0c-18.399,0-35.543,9.11-45.915,24.091
		c-0.687-0.046-1.395-0.073-2.122-0.073c-26.379,0-47.84,21.46-47.84,47.84c0,21.696,14.523,40.055,34.356,45.893
		c4.372,71.168,13.682,225.607,13.682,250.336C227.49,401.346,211.732,501.965,211.573,502.978z M228.39,496.383
		c0.908-5.972,2.18-14.492,3.601-24.414h11.313v-15.617h-9.121c4.298-31.308,8.925-69.398,8.925-88.265
		c0-24.823-9.086-175.942-13.536-248.448c19.561-0.93,36.463-13.758,42.827-31.965h42.687
		c-2.647,45.001-14.775,252.112-15.537,280.201c-0.487,17.936,4.255,56.651,8.723,88.477h-8.923v15.617h11.167
		c1.457,9.91,2.767,18.432,3.703,24.414H228.39z M195.071,71.858c0-17.767,14.454-32.222,32.222-32.222
		c1.518,0,3.168,0.255,4.915,0.524l5.358,0.826l2.647-4.732c7.121-12.728,20.577-20.635,35.118-20.635
		c22.183,0,40.229,18.046,40.229,40.229v16.147l-55.443-0.446l-1.222,6.394c-2.896,15.147-16.187,26.139-31.601,26.139
		C209.525,104.08,195.071,89.626,195.071,71.858z"/>
</g>
<g>
</g>
<g>
</g>
<g>
</g>
<g>
</g>
<g>
</g>
<g>
</g>
<g>
</g>
<g>
</g>
<g>
</g>
<g>
</g>
<g>
</g>
<g>
</g>
<g>
</g>
<g>
</g>
<g>
</g>
</svg>
